<?xml version="1.0" encoding="UTF-8"?>
<!DOCTYPE svg PUBLIC "-//W3C//DTD SVG 1.1//EN" "http://www.w3.org/Graphics/SVG/1.1/DTD/svg11.dtd">
<!-- Creator: CorelDRAW X7 -->
<svg xmlns="http://www.w3.org/2000/svg" xml:space="preserve" width="8in" height="8in" version="1.1" style="shape-rendering:geometricPrecision; text-rendering:geometricPrecision; image-rendering:optimizeQuality; fill-rule:evenodd; clip-rule:evenodd"
viewBox="0 0 8000 8000"
 xmlns:xlink="http://www.w3.org/1999/xlink">
 <defs>
  <style type="text/css">
   <![CDATA[
    .fil0 {fill:#D3AB57;fill-rule:nonzero}
   ]]>
  </style>
 </defs>
 <g id="Layer_x0020_1">
  <metadata id="CorelCorpID_0Corel-Layer"/>
  <g id="_1938776269888">
   <path class="fil0" d="M1264 3588c30,0 54,-24 54,-56 2,-146 2,-277 2,-392 179,-2 371,-2 569,0 31,0 55,-24 56,-54 0,-32 -24,-56 -56,-56 -196,-2 -386,-2 -569,0l0 -585 929 0c30,0 56,-25 56,-56 0,-30 -24,-54 -56,-54l-985 -2c-31,0 -54,24 -54,55l0 339c0,259 0,528 -2,805 0,30 25,56 56,56zm1393 -4l1061 2c29,0 54,-26 54,-56 0,-29 -25,-54 -56,-54 -656,0 -825,0 -1003,-2 5,-400 8,-1071 8,-1103 0,-29 -25,-55 -54,-55 -30,0 -56,26 -56,56 0,29 -3,732 -8,1146 -4,44 13,66 54,66zm1792 28c173,27 493,2 654,-143 134,-120 225,-278 234,-461 8,-180 -53,-357 -171,-489 -265,-292 -807,-305 -1088,-32 -119,119 -187,278 -194,448 -5,169 51,334 158,456 102,119 239,193 407,221zm103 -100l-3 0c-182,-11 -322,-75 -424,-194 -186,-212 -173,-553 31,-751 235,-233 704,-219 928,28 98,106 151,257 143,408 -7,152 -75,288 -192,381 -122,95 -283,139 -483,128zm2297 79c30,2 54,-22 54,-54 1,-217 3,-421 3,-707 0,-205 0,-354 2,-446 0,-32 -24,-56 -54,-56 -31,0 -56,26 -56,54 -2,94 -2,243 -2,448l0 154 -998 0 0 -607c0,-28 -26,-54 -55,-54 -30,0 -55,26 -55,54l0 641c0,229 0,400 -2,515 0,32 24,56 54,56 31,0 56,-25 56,-54 2,-103 2,-249 2,-441l998 0 0 58c-2,147 -2,275 -3,385 0,28 25,54 56,54z"/>
   <g>
    <path class="fil0" d="M1157 4545l57 -58c51,40 103,60 158,60 37,0 68,-11 92,-32 24,-21 36,-48 36,-81 0,-33 -23,-69 -68,-109l-58 -51c-43,-38 -70,-64 -80,-79 -10,-16 -15,-36 -15,-62 0,-51 21,-95 65,-132 43,-37 95,-55 155,-55 38,0 83,11 134,34l-20 103 -26 0c0,-8 1,-14 1,-18 0,-26 -11,-47 -32,-63 -21,-16 -48,-24 -83,-24 -35,0 -65,11 -89,32 -24,20 -36,46 -36,77 0,21 6,40 18,57 12,17 38,42 77,75l48 42c54,46 81,89 81,129 0,53 -25,98 -76,136 -51,37 -111,56 -182,56 -54,0 -106,-12 -157,-37z"/>
    <path class="fil0" d="M2060 4345l-7 0c-31,68 -69,124 -112,167 -44,44 -85,65 -123,65 -58,0 -87,-36 -87,-108 0,-79 32,-157 96,-233 66,-79 147,-118 242,-118 39,0 80,1 123,4l-30 122 -40 202c-6,31 -9,52 -9,61 0,17 8,26 24,26 28,0 69,-30 124,-90l-8 38c-60,64 -115,96 -163,96 -40,0 -60,-20 -60,-62 0,-13 3,-36 10,-69l20 -101zm34 -164c-35,-15 -69,-23 -103,-23 -50,0 -90,31 -120,94 -35,74 -53,141 -53,201 0,42 13,64 38,64 24,0 58,-25 102,-74 44,-49 83,-106 117,-169l19 -93z"/>
    <path class="fil0" d="M2607 4441l-7 37c-65,66 -121,99 -168,99 -39,0 -58,-21 -58,-62 0,-18 3,-41 8,-70l57 -282c20,-99 57,-176 112,-231 55,-54 121,-82 200,-82 28,0 52,3 74,8l-56 59c-32,-14 -60,-22 -83,-22 -44,0 -76,16 -98,48 -22,31 -42,91 -60,179l-65 324c-6,31 -9,51 -9,61 0,17 8,26 24,26 19,0 54,-25 107,-73 4,-4 12,-10 22,-19z"/>
    <path class="fil0" d="M2827 4577c-36,0 -66,-14 -90,-42 -24,-28 -36,-62 -36,-104 0,-79 30,-151 90,-218 60,-66 125,-100 196,-100 38,0 69,14 94,41 25,27 37,62 37,104 0,82 -30,155 -90,221 -59,66 -127,98 -201,98zm47 -35c41,0 77,-26 108,-78 30,-52 46,-112 46,-181 0,-90 -28,-135 -83,-135 -40,0 -75,27 -106,80 -32,54 -47,114 -47,181 0,89 27,133 82,133z"/>
    <path class="fil0" d="M3276 4572l31 -126 40 -202c6,-31 9,-51 9,-61 0,-17 -8,-25 -24,-25 -27,0 -68,30 -122,89l7 -37c60,-64 114,-97 163,-97 39,0 59,21 59,62 0,13 -3,37 -9,69l-21 101 6 0c35,-70 73,-126 116,-168 44,-43 84,-64 121,-64 45,0 67,25 67,75 0,16 -2,35 -7,58l-40 200c-6,31 -9,52 -9,61 0,17 8,26 24,26 28,0 69,-30 124,-90l-8 38c-60,64 -115,96 -163,96 -40,0 -60,-20 -60,-61 0,-14 4,-37 10,-70l42 -200c3,-15 5,-28 5,-39 0,-22 -9,-33 -25,-33 -53,0 -125,82 -218,247l-31 146 -87 5zm818 -27l58 -58c50,40 103,60 157,60 38,0 68,-11 92,-32 24,-21 36,-48 36,-81 0,-33 -22,-69 -67,-109l-59 -51c-43,-38 -69,-64 -80,-79 -10,-16 -15,-36 -15,-62 0,-51 22,-95 65,-132 43,-37 95,-55 155,-55 38,0 83,11 135,34l-21 103 -26 0c1,-8 1,-14 1,-18 0,-26 -10,-47 -31,-63 -21,-16 -49,-24 -83,-24 -36,0 -65,11 -90,32 -24,20 -36,46 -36,77 0,21 6,40 18,57 13,17 38,42 77,75l49 42c54,46 81,89 81,129 0,53 -26,98 -77,136 -50,37 -111,56 -181,56 -54,0 -107,-12 -158,-37z"/>
    <path class="fil0" d="M5028 4345l-7 0c-78,155 -154,232 -228,232 -44,0 -66,-25 -66,-77 0,-15 3,-33 7,-55l40 -201c6,-31 9,-51 9,-61 0,-17 -8,-25 -24,-25 -27,0 -68,30 -123,90l8 -38c60,-64 114,-97 162,-97 40,0 60,21 60,62 0,13 -3,36 -10,69l-40 201c-4,18 -6,31 -6,39 0,22 8,33 24,33 21,0 52,-25 94,-75 42,-49 80,-107 115,-173l30 -146 88 -5 -31 126 -40 202c-7,31 -10,51 -10,61 0,17 9,26 25,26 27,0 68,-30 122,-90l-7 38c-61,64 -115,96 -163,96 -39,0 -59,-20 -59,-62 0,-13 3,-37 10,-69l20 -101z"/>
    <path class="fil0" d="M5603 4443l-8 38c-60,64 -114,96 -162,96 -39,0 -59,-20 -59,-62 0,-13 3,-36 9,-68l29 -142c8,-41 12,-68 12,-81 0,-23 -9,-34 -27,-34 -13,0 -35,4 -67,14l5 -25 202 -66 -31 131 -40 202c-6,31 -9,52 -9,60 0,18 8,27 24,27 27,0 67,-30 122,-90zm-151 -402l28 -55 115 -76 -35 76 -108 55z"/>
    <path class="fil0" d="M5799 4153l-94 0 28 -30 72 0 23 -117 85 -20 -25 137 153 0 -33 36c-35,-4 -66,-6 -93,-6l-33 0 -57 280c-6,29 -9,49 -9,61 0,21 10,32 29,32 30,0 70,-22 121,-65l-7 37c-54,53 -105,79 -154,79 -47,0 -70,-25 -70,-77 0,-18 3,-42 9,-73l55 -274z"/>
    <path class="fil0" d="M6496 4455l-6 32c-88,60 -162,90 -224,90 -39,0 -70,-13 -95,-40 -24,-28 -36,-63 -36,-106 0,-77 29,-149 89,-217 59,-68 123,-101 190,-101 24,0 44,8 59,24 15,16 23,38 23,64 0,52 -27,97 -81,135 -54,38 -118,57 -193,57l0 18c0,80 29,119 88,119 51,0 113,-25 186,-75zm-273 -87c62,-5 110,-21 145,-48 35,-27 52,-61 52,-104 0,-41 -15,-62 -46,-62 -33,0 -65,21 -96,65 -31,44 -49,93 -55,149z"/>
    <path class="fil0" d="M6594 4552l54 -55c36,27 72,40 110,40 22,0 42,-6 57,-18 16,-12 24,-26 24,-44 0,-19 -16,-46 -47,-79l-37 -41c-37,-40 -55,-73 -55,-100 0,-37 17,-70 53,-98 35,-29 76,-44 122,-44 25,0 53,6 84,16l-18 90 -26 0 1 -7c1,-2 1,-5 1,-8 0,-37 -24,-55 -72,-55 -53,0 -80,21 -80,63 0,22 16,50 47,86l34 37c37,41 55,75 55,102 0,36 -19,69 -58,97 -39,29 -84,43 -133,43 -35,0 -74,-8 -116,-25z"/>
   </g>
  </g>
 </g>
</svg>
